<?xml version="1.0" encoding="UTF-8"?>
<svg width="94px" height="29px" viewBox="0 0 94 29" version="1.1" xmlns="http://www.w3.org/2000/svg" xmlns:xlink="http://www.w3.org/1999/xlink">
    <!-- Generator: Sketch 49.3 (51167) - http://www.bohemiancoding.com/sketch -->
    <title>Page 1</title>
    <desc>Created with Sketch.</desc>
    <defs>
        <polygon id="path-1" points="0 29 93.8494791 29 93.8494791 0.0341623037 42.1484375 0.0341623037 0 0.0341623037"></polygon>
    </defs>
    <g id="Page-1" stroke="none" stroke-width="1" fill="none" fill-rule="evenodd">
        <g id="Header-#1" transform="translate(-533.000000, -20.000000)">
            <g id="Page-1" transform="translate(533.000000, 20.000000)">
                <path d="M9.28780819,8 L0,28 L1.53839338,28 L4.07422449,22.4399103 L15.8405636,22.4399103 L18.3760993,28 L20,28 L10.7121918,8 L9.28780819,8 Z M9.9715714,9.61699938 L15.2138052,21.1064299 L4.70083514,21.1064299 L9.9715714,9.61699938 Z" id="Fill-1" fill="#000000"></path>
                <g id="Group-10">
                    <path d="M25.6272714,18.4553571 L25.6272714,18.3965979 C25.6272714,12.5970534 29.9422039,7.79322618 35.8314096,7.79322618 C39.4756476,7.79322618 41.662281,9.14073927 43.7614129,11.074022 L42.6826797,12.1869539 C40.904236,10.4589487 38.8634386,9.17019476 35.8022424,9.17019476 C30.9042682,9.17019476 27.2015447,13.182823 27.2015447,18.3382942 L27.2015447,18.3965979 C27.2015447,23.5812209 30.9626026,27.6234565 35.8314096,27.6234565 C38.775937,27.6234565 40.7877183,26.4810691 42.857683,24.4305717 L43.8780817,25.4265927 C41.7206154,27.5648492 39.3882971,28.9999696 35.7730752,28.9999696 C29.9422039,28.9999696 25.6272714,24.3426607 25.6272714,18.4553571" id="Fill-2" fill="#000000"></path>
                    <polygon id="Fill-4" fill="#000000" points="50.962765 8.14483979 52.3913534 8.14483979 60.5837103 20.2713948 68.7762183 8.14483979 70.2048068 8.14483979 70.2048068 28.648599 68.6887167 28.648599 68.6887167 10.8397141 60.6128775 22.6439288 60.4963598 22.6439288 52.4205206 10.8397141 52.4205206 28.648599 50.962765 28.648599"></polygon>
                    <polygon id="Fill-6" fill="#000000" points="79.1846932 8.14483979 93.7036129 8.14483979 93.7036129 9.55096021 80.7006322 9.55096021 80.7006322 17.6059759 92.3918444 17.6059759 92.3918444 19.0117927 80.7006322 19.0117927 80.7006322 27.2426304 93.8494489 27.2426304 93.8494489 28.648599 79.1846932 28.648599"></polygon>
                    <mask id="mask-2" fill="white">
                        <use xlink:href="#path-1"></use>
                    </mask>
                    <g id="Clip-9"></g>
                    <polygon id="Fill-8" fill="#000000" mask="url(#mask-2)" points="0.147045016 0.945157068 93.6936688 0.945157068 93.6936688 0.0341623037 0.147045016 0.0341623037"></polygon>
                </g>
            </g>
        </g>
    </g>
</svg>